<?xml version="1.0" encoding="UTF-8" standalone="no"?>
<!-- Uploaded to: SVG Repo, www.svgrepo.com, Transformed by: SVG Repo Mixer Tools -->

<svg
   width="1960.1617"
   height="679.05231"
   viewBox="0 0 58.804852 20.371569"
   fill="none"
   stroke="#fe8d0b"
   version="1.1"
   id="svg1"
   xml:space="preserve"
   xmlns="http://www.w3.org/2000/svg"
   xmlns:svg="http://www.w3.org/2000/svg"><defs
     id="defs1" /><g
     id="g2"
     transform="translate(4.383717,-1.6739877)"><g
       id="g3"
       transform="matrix(1.0712699,0,0,1.0712699,7.6615925,-0.1193049)"><g
         id="SVGRepo_iconCarrier"
         style="stroke-width:1.5;stroke-dasharray:none"
         transform="translate(-13.493954,-1.0606602)"><path
           d="M 11,21.0001 H 9.8 c -1.68016,0 -2.52024,0 -3.16197,-0.327 C 6.07354,20.3855 5.6146,19.9265 5.32698,19.362 5,18.7203 5,17.8802 5,16.2001 V 9.77753 M 21,12.0001 15.5668,5.96405 C 14.3311,4.59129 13.7133,3.9049 12.9856,3.65151 12.3466,3.42894 11.651,3.42899 11.0119,3.65165 10.2843,3.90516 9.66661,4.59163 8.43114,5.96458 L 3,12.0001"
           stroke="#ff7e38"
           stroke-width="1.584"
           stroke-linecap="round"
           stroke-linejoin="round"
           id="path1"
           style="stroke-width:1.5;stroke-dasharray:none" /></g><g
         style="fill:none"
         id="g1"
         transform="matrix(0.52177699,0,0,0.52177699,-3.3322276,9.0838741)"><g
           id="SVGRepo_iconCarrier-7"><path
             opacity="0.5"
             d="M 12.8324,21.8013 C 15.9583,21.1747 20,18.926 20,13.1112 20,7.8196 16.1267,4.29593 13.3415,2.67685 12.7235,2.31757 12,2.79006 12,3.50492 V 5.3334 C 12,6.77526 11.3938,9.40711 9.70932,10.5018 8.84932,11.0607 7.92052,10.2242 7.816,9.20388 L 7.73017,8.36604 C 7.6304,7.39203 6.63841,6.80075 5.85996,7.3946 4.46147,8.46144 3,10.3296 3,13.1112 c 0,7.1111 5.28889,8.8889 7.9333,8.8889 0.1538,0 0.3155,-0.0046 0.4838,-0.0143 0.4459,-0.0562 0,0.0992 1.4153,-0.1845 z"
             fill="#fe7b01"
             id="path1-5"
             style="stroke-width:0;stroke-dasharray:none" /><path
             d="m 8,18.4442 c 0,2.6198 2.1113,3.43 3.4171,3.5416 0.4459,-0.0562 0,0.0992 1.4153,-0.1845 C 13.871,21.4343 15,20.4922 15,18.4442 c 0,-1.2977 -0.8186,-2.0983 -1.4599,-2.4731 -0.1962,-0.1147 -0.424,0.0297 -0.4416,0.2562 -0.0556,0.7181 -0.7451,1.2901 -1.2149,0.7441 -0.4151,-0.4825 -0.5895,-1.1874 -0.5895,-1.6383 v -0.5892 c 0,-0.3552 -0.3576,-0.5906 -0.6631,-0.4093 C 9.49507,15.0085 8,16.3949 8,18.4442 Z"
             fill="#fe7b01"
             id="path2"
             style="stroke-width:0;stroke-dasharray:none" /></g></g></g><text
       xml:space="preserve"
       style="font-style:normal;font-variant:normal;font-weight:normal;font-stretch:normal;font-size:16.6878px;font-family:Inter;-inkscape-font-specification:'Inter, Normal';font-variant-ligatures:normal;font-variant-caps:normal;font-variant-numeric:normal;font-variant-east-asian:normal;writing-mode:lr-tb;direction:ltr;fill:#000000;fill-opacity:1;fill-rule:evenodd;stroke:#f21616;stroke-width:0;stroke-linecap:round;stroke-linejoin:round;stroke-dasharray:none;paint-order:stroke fill markers"
       x="18.266951"
       y="16.763248"
       id="text1"><tspan
         id="tspan1"
         style="font-style:normal;font-variant:normal;font-weight:normal;font-stretch:normal;font-size:16.6878px;font-family:Inter;-inkscape-font-specification:'Inter, Normal';font-variant-ligatures:normal;font-variant-caps:normal;font-variant-numeric:normal;font-variant-east-asian:normal;fill:#000000;fill-opacity:1;stroke-width:0;stroke-dasharray:none"
         x="18.266951"
         y="16.763248">ignis</tspan></text></g></svg>
